<?xml version="1.0" encoding="utf-8"?>
<!-- Generator: Adobe Illustrator 16.0.0, SVG Export Plug-In . SVG Version: 6.00 Build 0)  -->
<!DOCTYPE svg PUBLIC "-//W3C//DTD SVG 1.1//EN" "http://www.w3.org/Graphics/SVG/1.1/DTD/svg11.dtd">
<svg version="1.1" id="check" xmlns="http://www.w3.org/2000/svg" xmlns:xlink="http://www.w3.org/1999/xlink" x="0px" y="0px"
	 width="520px" height="515px" viewBox="0 0 520 515" enable-background="new 0 0 520 515" xml:space="preserve">
<g>
	<g>
		<defs>
			<circle id="SVGID_1_" cx="259.514" cy="256.514" r="248.514"/>
		</defs>
		<use xlink:href="#SVGID_1_"  overflow="visible" fill="#0DDFBA"/>
		<clipPath id="SVGID_2_">
			<use xlink:href="#SVGID_1_"  overflow="visible"/>
		</clipPath>
		<g clip-path="url(#SVGID_2_)">
			<path fill="#DB5D51" d="M378.111,516.02h-229.52c10.303-48.815,39.288-80.857,39.288-80.857
				c50.116-6.598,102.696-6.573,152.325,0.001C340.205,435.163,368.747,459.068,378.111,516.02z"/>
			<path fill="#282324" d="M182.713,144.869c-2.44-59.527,9.401-101.97,56.812-100.621c3.774,0.107,7.52-0.647,10.973-2.176
				c55.998-24.783,83.896,27.307,80.289,73.882c-2.089,26.972,1.78,37.776,8.61,45.008c15.434,16.343,45.963,48.81,26.307,78.469
				c-20.693,31.225-36.248,37.759-72.204,36.54c-55.133-1.869-73.914,3.021-113.454-15.627
				c-24.048-11.342-28.302-39.41-20.939-62.524C164.645,180.431,183.743,169.991,182.713,144.869z"/>
			<path fill="#7D4246" d="M187.883,435.237c0,0,3.516-25.742,5.889-26.172s146.432-1.498,146.432-1.498
				c-0.93,11.083,0.854,22.49,0,27.67C288.189,440.57,237.387,440.698,187.883,435.237z"/>
			<path fill="#FEB096" d="M320.718,213.803c-20.375,11.362-49.317,19.508-73.136,19.769c-4.71,0.054-36.681-7.759-34.358-22.163
				c3.556-0.955,8.339-4.363,13.677-5.512c2.448-0.526,4.697-1.975,5.258-4.949c3.055-16.232,0.112-47.463,0.112-51.48
				c0.101-0.086,0.2-0.172,0.3-0.26l-2.487-25.912c2.774,3.195,5.523,2.722,5.731-3.104c0.466-13.256,1.174-17.934,14.15-21.355
				c20.461-5.391,14.811-31.757,35.213-26.053c10.475,3.91,19.922,13.51,21.883,28.896c0,0,2.128,11.534,1.688,25.926
				c-0.173,5.53-0.721,11.482-1.921,17.366c-2.956,14.504-9.848,28.575-24.673,34.826c-0.159,9.527,0.127,20.843,3.043,23.064
				c1.835,1.395,3.93,2.175,8.286,3.035C301.75,207.538,312.665,210.934,320.718,213.803z"/>
			<g>
				<path fill="#7D4246" d="M179.561,478.127c-0.125,0-0.253-0.023-0.377-0.073c-0.522-0.208-0.777-0.8-0.569-1.322
					c6.075-15.271,19.158-34.384,19.289-34.575c0.318-0.465,0.952-0.581,1.416-0.264c0.464,0.32,0.582,0.954,0.263,1.417
					c-0.13,0.189-13.085,19.118-19.074,34.175C180.349,477.884,179.965,478.127,179.561,478.127z"/>
			</g>
			<path fill="#D49E44" d="M404.047,331.379c-29.642-105.066-81.27-119.877-110.562-125.482c-16.216,11.344-48.548,10.422-66.589,0
				c-24.595,3.762-51.021,10.559-69.271,34.793c-36.256,48.143-49.199,142.394-25.082,159.131
				c27.229,18.896,52.83-0.991,51.35-17.017c-4.064,10.935-0.502,34.249,7.587,36.79c9.625,3.677,32.074,2.424,51.715-3.677
				c40.356,4.706,94.821-0.772,96.734-1.84c1.546-0.534,8.971-4.266,10.266-25.933c3.151,18.043,18.868,26.847,33.112,25.13
				C398.451,411.449,421.791,394.272,404.047,331.379z"/>
			<g>
				<path fill="#FEB096" d="M432.916,208.93c0.43-1.167,0.948-2.743,1.352-4.042c2.927-9.428-3.074-9.382-5.686-6.73
					c2.896-7.271-2.895-10.722-6.125-5.13c-0.837,1.449-8.233,15.229-12.544,27.061c-0.666-5.001-7.542-13.465-21.394-9.008
					c-2.699,0.868-3.511,2.354-3.188,3.736c-1.361-0.032-2.836,0.584-3.802,1.967c-2.756,3.947-6.993,10.828-6.649,15.651
					c0.372,5.329,2.5,19.263,6.785,34.276c2.035,7.131-32.32,99.586-26.008,122.201c5.475,19.606,36.074,28.493,47.378-0.108
					c6.829-17.278,9.044-107.809,12.222-114.519c10.225-21.59,9.468-21.376,13.146-31.68c2.604-7.291,7.225-21.262,8.817-26.543
					C439.588,208.216,434.899,207.502,432.916,208.93z M395.451,237.65c-3.65,6.684-8.113,0.91-10.295-3.836
					s1.164-10.316,2.657-12.959c0.653-1.154,0.899-2.162,0.86-3.012c0.33,0.098,0.674,0.17,1.027,0.209
					C395.02,218.639,407.604,216.197,395.451,237.65z"/>
				<g>
					<path fill="#7D4246" d="M416.628,225.574c-0.127,0-0.256-0.026-0.381-0.082c-0.465-0.209-0.671-0.757-0.462-1.223
						l11.443-25.415c0.209-0.466,0.756-0.675,1.224-0.464c0.465,0.209,0.672,0.758,0.462,1.223l-11.443,25.416
						C417.317,225.371,416.979,225.574,416.628,225.574z"/>
				</g>
				<g>
					<path fill="#7D4246" d="M423.656,231.124c-0.12,0-0.243-0.024-0.361-0.075c-0.47-0.2-0.688-0.744-0.487-1.213l8.438-19.764
						c0.2-0.469,0.744-0.688,1.214-0.486c0.471,0.2,0.688,0.743,0.487,1.213l-8.439,19.764
						C424.359,230.913,424.017,231.124,423.656,231.124z"/>
				</g>
				<g>
					<g>
						<path fill="#FFFFFF" d="M374.993,189.917c0.345-0.313,0.438-0.835,0.195-1.255l-11.552-20.045
							c-0.279-0.485-0.899-0.652-1.385-0.372c-0.486,0.279-0.652,0.899-0.373,1.385l11.551,20.044
							c0.281,0.486,0.9,0.653,1.386,0.373C374.881,190.01,374.94,189.966,374.993,189.917z"/>
					</g>
					<g>
						<path fill="#FFFFFF" d="M388.233,186.967c0.446-0.121,0.767-0.54,0.746-1.022l-1.126-26.2
							c-0.023-0.561-0.497-0.994-1.057-0.971c-0.559,0.025-0.994,0.498-0.97,1.057l1.125,26.201c0.024,0.561,0.497,0.994,1.058,0.97
							C388.086,186.998,388.16,186.986,388.233,186.967z"/>
					</g>
					<g>
						<path fill="#FFFFFF" d="M402.378,189.602c0.471,0.104,0.961-0.141,1.153-0.601l8.801-21.158
							c0.215-0.518-0.029-1.111-0.547-1.327c-0.518-0.213-1.111,0.031-1.326,0.547l-8.801,21.158
							c-0.215,0.518,0.029,1.111,0.547,1.327C402.263,189.572,402.32,189.59,402.378,189.602z"/>
					</g>
				</g>
			</g>
			<g>
				<path fill="#FEB096" d="M174.358,377.813c6.944-35.706-0.815-118.972,1.017-127.913c0.09-0.438,11.448-18.676,13.433-24.291
					c2.103-5.951,3.679-19.479,3.679-19.479c0.658-4.671-0.164-6.3-1.848-6.606c-2.289-0.416-3.636,1.572-4.754,4.486
					c-1.313,3.424-3.507,10.525-5.114,13.751c-0.462,0.926-1.147,2.071-1.974,3.344c0,0,0.497-12.896,0.415-18.159
					c-0.103-6.539-6.835-6.91-8.78-2.828c-0.065,0.137-0.387,0.156-0.397-0.15c-0.163-5.167-8.386-4.405-9.489-0.729
					c-0.104,0.348-0.428,0.332-0.587,0.026c-2.005-3.847-8.057-1.489-7.974,1.716c0.004,0.15-0.479,0.072-0.612-0.213
					c-1.08-2.297-7.83-3.308-8.843,2.42c-0.367,2.082-0.76,4.052-1.224,5.945c-4.343,17.75-1.483,29.813,0.191,40.935
					c0.49,3.249-22.658,93.613-13.968,127.558C135.612,409.195,170.565,397.316,174.358,377.813z"/>
			</g>
			<g>
				<g>
					<path fill="#7D4246" d="M241.466,418.649c-0.392,0-0.765-0.229-0.933-0.61c-0.227-0.515,0.008-1.115,0.522-1.342
						c8.503-3.736,21.478-12.647,27.397-18.12c0.413-0.382,1.059-0.356,1.439,0.058c0.382,0.412,0.355,1.057-0.058,1.438
						c-6.05,5.592-19.021,14.561-27.96,18.489C241.742,418.621,241.603,418.649,241.466,418.649z"/>
				</g>
				<g>
					<path fill="#7D4246" d="M205.788,463.867c-0.089,0-0.179-0.012-0.27-0.037c-0.542-0.148-0.861-0.707-0.713-1.25
						c3.268-11.948,6.881-18.538,7.032-18.813c0.273-0.491,0.893-0.67,1.385-0.396c0.492,0.271,0.67,0.891,0.398,1.384
						c-0.037,0.065-3.653,6.675-6.852,18.362C206.646,463.569,206.236,463.867,205.788,463.867z"/>
				</g>
				<g>
					<path fill="#7D4246" d="M337.241,473.288c-0.444,0-0.853-0.292-0.979-0.741c-3.954-13.987-9.904-29.291-9.964-29.444
						c-0.204-0.524,0.056-1.114,0.579-1.318c0.523-0.205,1.114,0.055,1.318,0.578c0.061,0.154,6.045,15.546,10.027,29.63
						c0.152,0.542-0.162,1.104-0.703,1.257C337.427,473.275,337.334,473.288,337.241,473.288z"/>
				</g>
				<g>
					<g>
						<path fill="#7D4246" d="M338.086,416.572c-0.101,0-0.197-0.002-0.291-0.007c-0.563-0.029-0.994-0.509-0.965-1.07
							c0.029-0.561,0.502-0.994,1.069-0.964c1.336,0.064,2.717-0.607,3.985-1.957c4.224-4.492,13.102-23.262,4.334-100.332
							c-0.063-0.56,0.338-1.064,0.896-1.127c0.562-0.066,1.064,0.338,1.127,0.896c8.545,75.113,0.614,96.12-4.873,101.959
							C341.379,416.086,339.443,416.572,338.086,416.572z"/>
					</g>
					<g>
						<path fill="#7D4246" d="M378.602,408.422c-11.154-0.78-20.478-10.613-22.6-15.989c-0.207-0.522,0.051-1.114,0.573-1.32
							c0.524-0.207,1.115,0.049,1.322,0.572c1.951,4.942,10.544,13.984,20.835,14.704c0.122,0.009,0.243,0.016,0.367,0.021
							c8.848,0.446,16.81-5.68,23.024-17.714c0.259-0.5,0.872-0.696,1.372-0.439c0.5,0.259,0.695,0.873,0.438,1.373
							c-8.35,16.169-18.17,19.156-24.938,18.815C378.865,408.438,378.732,408.43,378.602,408.422z"/>
					</g>
					<g>
						<path fill="#7D4246" d="M149.525,398.258c-11.154-0.779-20.478-10.612-22.6-15.988c-0.206-0.523,0.051-1.114,0.573-1.321
							c0.524-0.206,1.116,0.05,1.322,0.573c1.951,4.942,10.543,13.985,20.835,14.704c0.122,0.008,0.244,0.016,0.366,0.021
							c8.849,0.445,16.811-5.68,23.025-17.715c0.258-0.5,0.872-0.696,1.372-0.438c0.5,0.258,0.695,0.872,0.438,1.372
							c-8.349,16.169-18.17,19.155-24.938,18.814C149.789,398.275,149.655,398.268,149.525,398.258z"/>
					</g>
				</g>
			</g>
			<g>
				<path fill="#FFFFFF" d="M90.493,445.118h130.295c3.046,0,5.751-1.729,7.455-4.408c1.183-1.856,1.886-4.17,1.886-6.68V220.798
					c0-3.827-1.635-7.202-4.118-9.193c-1.491-1.196-3.288-1.894-5.223-1.894H90.493c-2.394,0-4.575,1.068-6.228,2.824
					c-1.91,2.03-3.112,4.979-3.112,8.263V434.03c0,2.8,0.874,5.355,2.314,7.307C85.18,443.654,87.692,445.118,90.493,445.118z"/>
				<path fill="#FEB096" d="M143.031,201.597l35.581,1.091c-0.042,0.327,0.503,1.592,0.455,2.02
					c-0.033,0.313-0.829,7.695-1.399,10.266c-0.473,2.134-0.935,4.758-3.611,5.101c-2.152,0.276-3.855-1.208-4.487-3.746
					c-0.011-0.042-0.021-0.083-0.031-0.126c-0.018-0.068-0.161-0.109-0.178-0.179l-0.084,0.289c-0.2,4.444-2.464,5.382-3.854,5.562
					c-2.258,0.289-4.084-1.265-4.749-3.936c-0.007-0.028-0.014-0.056-0.021-0.085c-0.201-0.808-0.359-1.743-0.485-2.748
					c-0.104,0.982-0.211,1.96-0.327,2.915c-0.364,2.988-2.576,4.234-4.604,4.141c-1.47-0.064-3.257-0.833-4.021-3.902
					c-0.091-0.369-0.163-0.785-0.224-1.225c-0.025,0.123-0.047,0.248-0.074,0.37c-0.469,2.076-2.22,3.642-4.162,3.722
					c-1.033,0.041-2.08-0.371-2.871-1.135c-0.502-0.484-1.163-1.25-1.374-2.496C141.435,211.158,141.619,205.517,143.031,201.597z"
					/>
			</g>
			<g>
				<path fill="#282324" d="M295.152,104.736c-5.949-0.013-10.5,3.206-10.567,3.254c-0.415,0.3-0.507,0.879-0.208,1.293
					c0.299,0.416,0.877,0.51,1.294,0.21c0.358-0.258,8.896-6.254,17.495-0.357c0.424,0.286,1.001,0.183,1.289-0.241
					c0.289-0.422,0.182-0.998-0.24-1.288C301.101,105.472,297.97,104.741,295.152,104.736z"/>
				<path fill="#282324" d="M255.255,106.869c-4.417,1.246-7.302,3.678-7.354,3.723c-0.387,0.334-0.431,0.918-0.099,1.306
					c0.334,0.388,0.918,0.431,1.308,0.1c0.338-0.293,8.435-7.07,18.149-2.366c0.461,0.225,1.016,0.035,1.239-0.43
					c0.224-0.461,0.03-1.016-0.43-1.238C263.266,105.639,258.773,105.877,255.255,106.869z"/>
				
					<ellipse transform="matrix(-1 -0.0019 0.0019 -1 590.7897 241.1848)" fill="#7D4246" cx="295.508" cy="120.314" rx="4.152" ry="5.092"/>
				
					<ellipse transform="matrix(-1 -0.006 0.006 -1 517.3391 244.4471)" fill="#7D4246" cx="259.036" cy="121.448" rx="4.151" ry="5.091"/>
				<path fill="#282324" d="M268.733,184.255c-5.998,0-12.683-1.581-19.014-6.478c-0.443-0.343-0.524-0.979-0.182-1.422
					c0.345-0.443,0.98-0.525,1.423-0.183c16.67,12.893,36.113,1.205,36.308,1.085c0.478-0.294,1.102-0.145,1.396,0.332
					c0.293,0.477,0.146,1.101-0.331,1.395C288.2,179.066,279.596,184.255,268.733,184.255z"/>
				<path fill="#7D4246" d="M277.312,141.192c2.039-0.148,3.908-0.921,5.229-2.241c1.477-1.476,2.002-3.359,1.441-5.172
					c-1.052-3.395-1.953-6.576-2.68-9.27c-0.424-1.327-2.191-0.764-1.768,0.564c0.729,2.697,1.628,5.87,2.676,9.254
					c0.352,1.132-0.007,2.339-0.98,3.313c-1.26,1.259-3.921,2.359-7.266,1.322c-0.485-0.151-1.006,0.121-1.162,0.611
					c-0.15,0.488,0.124,1.008,0.611,1.16C274.716,141.137,276.048,141.284,277.312,141.192z"/>
				<g>
					<path fill="#F9F4F4" d="M290.537,147.771c1.999-0.651-1.65,11.766-11.826,12.221c-10.631,0.477-17.017-12.279-13.998-10.95
						C274.935,151.391,282.38,151.07,290.537,147.771z"/>
				</g>
				<path fill="#FEB096" d="M227.373,120.617c3.838,3.585,5.325,5.945,8.099,6.801l-1.788,19.644
					c-0.219,0.814-0.602,1.54-1.113,2.145c-3.58,4.229-13.528,2.488-18.769-16.614C210.492,120.527,222.217,115.8,227.373,120.617z"
					/>
				<path fill="#282324" d="M219.656,136.209c-0.332,0.025-0.661-0.148-0.816-0.465c-0.095-0.195-2.331-4.807-1.536-8.24
					c0.519-2.242,3.184-5.123,7.257-4.186c0.45,0.104,0.731,0.553,0.628,1.004c-0.104,0.45-0.553,0.732-1.004,0.628
					c-3.067-0.707-4.933,1.561-5.25,2.932c-0.66,2.851,1.388,7.082,1.408,7.124c0.204,0.415,0.032,0.916-0.382,1.12
					C219.862,136.174,219.759,136.201,219.656,136.209z"/>
			</g>
			<circle fill="#DB5D51" cx="250.27" cy="139.215" r="8.766"/>
			<path fill="#DB5D51" d="M308.748,127.604c-0.173,5.53-0.721,11.482-1.921,17.366c-4.717-0.141-8.501-4.002-8.501-8.76
				c0-4.844,3.924-8.768,8.768-8.768C307.661,127.443,308.215,127.498,308.748,127.604z"/>
		</g>
	</g>
	<line fill="none" x1="113.217" y1="243.861" x2="145.217" y2="243.861"/>
	<line fill="none" x1="164.217" y1="243.861" x2="206.217" y2="243.861"/>
	<line fill="none" x1="138.217" y1="252.861" x2="205.217" y2="252.861"/>
	<line fill="none" x1="143.217" y1="260.861" x2="206.217" y2="260.861"/>
	<line fill="none" x1="129.217" y1="278.861" x2="205.217" y2="278.861"/>
	<line fill="none" x1="129.217" y1="285.861" x2="205.217" y2="285.861"/>
	<line fill="none" x1="113.217" y1="374.861" x2="205.217" y2="374.861"/>
	<line fill="none" x1="104.217" y1="295.861" x2="205.217" y2="295.861"/>
	<line fill="none" x1="104.217" y1="356.861" x2="205.217" y2="356.861"/>
	<rect x="96.747" y="381.408" fill="#654E9F" width="21.449" height="4.438"/>
	<rect x="96.747" y="388.804" fill="#654E9F" width="4.37" height="4.438"/>
	<rect x="96.747" y="395.46" fill="#654E9F" width="4.37" height="4.438"/>
	<rect x="96.747" y="411.732" fill="#654E9F" width="4.37" height="4.438"/>
	<rect x="96.747" y="370.313" fill="#797E80" width="14.017" height="4.438"/>
	<rect x="96.747" y="343.687" fill="#797E80" width="100.182" height="4.438"/>
	<rect x="96.747" y="300.049" fill="#797E80" width="38.547" height="4.438"/>
	<rect x="111.539" y="308.185" fill="#797E80" width="35.343" height="4.438"/>
	<rect x="111.539" y="315.581" fill="#797E80" width="18.824" height="4.438"/>
	<rect x="118.196" y="323.717" fill="#797E80" width="11.015" height="4.438"/>
	<rect x="118.196" y="332.592" fill="#797E80" width="14.263" height="4.438"/>
	<rect x="143.344" y="323.717" fill="#797E80" width="11.014" height="4.438"/>
	<rect x="143.344" y="332.592" fill="#797E80" width="11.014" height="4.438"/>
	<rect x="167.012" y="323.717" fill="#797E80" width="11.014" height="4.438"/>
	<rect x="192.159" y="323.717" fill="#797E80" width="11.014" height="4.438"/>
	<rect x="212.868" y="301.528" fill="#797E80" width="3.168" height="16.271"/>
	<rect x="167.012" y="332.592" fill="#797E80" width="11.014" height="4.438"/>
	<rect x="103.404" y="282.298" fill="#797E80" width="22.521" height="4.438"/>
	<rect x="103.404" y="274.162" fill="#797E80" width="22.521" height="4.438"/>
	<rect x="96.747" y="266.025" fill="#797E80" width="88.386" height="4.438"/>
	<rect x="96.747" y="257.15" fill="#797E80" width="43.724" height="4.438"/>
	<rect x="96.747" y="248.275" fill="#797E80" width="38.547" height="4.438"/>
	<rect x="96.747" y="240.139" fill="#797E80" width="13.153" height="4.438"/>
	<rect x="149.261" y="240.139" fill="#797E80" width="12.659" height="4.438"/>
	<rect x="96.747" y="231.264" fill="#3C373A" width="78.364" height="4.438"/>
	<rect x="188.302" y="231.264" fill="#3C373A" width="14.667" height="4.438"/>
	<rect x="102.664" y="389.543" fill="#654E9F" width="97.747" height="3.062"/>
	<rect x="102.664" y="395.46" fill="#654E9F" width="100.891" height="3.062"/>
	<rect x="102.664" y="401.378" fill="#654E9F" width="49.395" height="3.061"/>
	<rect x="102.664" y="406.555" fill="#654E9F" width="19.811" height="3.062"/>
	<rect x="102.664" y="412.472" fill="#654E9F" width="35.156" height="3.061"/>
	<rect x="142.604" y="412.472" fill="#654E9F" width="30.72" height="3.061"/>
	<rect x="178.105" y="412.472" fill="#654E9F" width="27.367" height="3.061"/>
	<rect x="178.105" y="417.649" fill="#654E9F" width="27.367" height="3.061"/>
	<rect x="181.354" y="422.826" fill="#654E9F" width="24.118" height="3.062"/>
	<rect x="181.354" y="428.004" fill="#654E9F" width="24.118" height="3.061"/>
	<rect x="147.332" y="433.921" fill="#654E9F" width="53.079" height="3.061"/>
	<rect x="102.664" y="417.649" fill="#654E9F" width="69.272" height="3.061"/>
	<rect x="102.664" y="422.826" fill="#654E9F" width="73.525" height="3.062"/>
	<rect x="102.664" y="428.004" fill="#654E9F" width="73.525" height="3.061"/>
	<rect x="102.664" y="433.921" fill="#654E9F" width="39.939" height="3.061"/>
	<rect x="156.656" y="401.378" fill="#654E9F" width="49.396" height="3.061"/>
	<rect x="112.717" y="324.361" fill="none" stroke="#797E80" stroke-miterlimit="10" width="4" height="4"/>
	<rect x="112.717" y="332.361" fill="none" stroke="#797E80" stroke-miterlimit="10" width="4" height="4"/>
	<rect x="137.717" y="324.361" fill="none" stroke="#797E80" stroke-miterlimit="10" width="4" height="4"/>
	<rect x="137.717" y="332.361" fill="none" stroke="#797E80" stroke-miterlimit="10" width="4" height="4"/>
	<rect x="160.717" y="324.361" fill="none" stroke="#797E80" stroke-miterlimit="10" width="4" height="4"/>
	<rect x="185.717" y="324.361" fill="none" stroke="#797E80" stroke-miterlimit="10" width="3" height="4"/>
	<rect x="160.717" y="332.361" fill="none" stroke="#797E80" stroke-miterlimit="10" width="4" height="4"/>
	<g>
		<path fill="#FC0820" d="M94.056,241.379l0.136-0.42c0.314,0.109,0.544,0.206,0.686,0.287c-0.037-0.358-0.058-0.605-0.059-0.738
			h0.43c-0.006,0.195-0.028,0.44-0.068,0.734c0.204-0.103,0.438-0.197,0.7-0.283l0.136,0.42c-0.251,0.083-0.497,0.139-0.738,0.166
			c0.121,0.105,0.291,0.292,0.511,0.561l-0.356,0.253c-0.114-0.157-0.25-0.369-0.406-0.638c-0.146,0.279-0.275,0.491-0.386,0.638
			l-0.351-0.253c0.23-0.282,0.395-0.469,0.492-0.561C94.527,241.496,94.285,241.441,94.056,241.379z"/>
	</g>
	<g>
		<path fill="#FC0820" d="M146.466,241.379l0.137-0.42c0.314,0.109,0.543,0.206,0.686,0.287c-0.038-0.358-0.058-0.605-0.06-0.738
			h0.43c-0.006,0.195-0.027,0.44-0.067,0.734c0.204-0.103,0.437-0.197,0.7-0.283l0.136,0.42c-0.251,0.083-0.497,0.139-0.738,0.166
			c0.121,0.105,0.291,0.292,0.511,0.561l-0.356,0.253c-0.114-0.157-0.25-0.369-0.407-0.638c-0.146,0.279-0.274,0.491-0.385,0.638
			l-0.351-0.253c0.229-0.282,0.395-0.469,0.492-0.561C146.938,241.496,146.696,241.441,146.466,241.379z"/>
	</g>
	<g>
		<path fill="#FC0820" d="M185.133,232.967l0.136-0.422c0.314,0.111,0.544,0.207,0.686,0.288c-0.037-0.357-0.058-0.604-0.06-0.738
			h0.431c-0.006,0.195-0.028,0.44-0.068,0.735c0.204-0.104,0.437-0.197,0.7-0.285l0.137,0.422c-0.252,0.083-0.498,0.139-0.739,0.166
			c0.121,0.104,0.291,0.292,0.511,0.561l-0.355,0.252c-0.115-0.156-0.25-0.368-0.407-0.637c-0.147,0.278-0.275,0.491-0.386,0.637
			l-0.351-0.252c0.229-0.282,0.395-0.47,0.493-0.561C185.604,233.083,185.361,233.027,185.133,232.967z"/>
	</g>
	<g>
		<path fill="#FC0820" d="M94.056,250.009l0.136-0.421c0.314,0.11,0.544,0.206,0.686,0.287c-0.037-0.357-0.058-0.604-0.059-0.738
			h0.43c-0.006,0.195-0.028,0.441-0.068,0.735c0.204-0.103,0.438-0.197,0.7-0.284l0.136,0.421c-0.251,0.083-0.497,0.138-0.738,0.166
			c0.121,0.104,0.291,0.292,0.511,0.562l-0.356,0.252c-0.114-0.156-0.25-0.369-0.406-0.639c-0.146,0.279-0.275,0.492-0.386,0.639
			l-0.351-0.252c0.23-0.283,0.395-0.471,0.492-0.562C94.527,250.125,94.285,250.07,94.056,250.009z"/>
	</g>
	<g>
		<path fill="#FC0820" d="M94.056,258.762l0.136-0.422c0.314,0.111,0.544,0.207,0.686,0.287c-0.037-0.357-0.058-0.604-0.059-0.738
			h0.43c-0.006,0.195-0.028,0.441-0.068,0.736c0.204-0.104,0.438-0.198,0.7-0.285l0.136,0.422c-0.251,0.082-0.497,0.138-0.738,0.166
			c0.121,0.104,0.291,0.291,0.511,0.561l-0.356,0.252c-0.114-0.156-0.25-0.369-0.406-0.638c-0.146,0.278-0.275,0.491-0.386,0.638
			l-0.351-0.252c0.23-0.283,0.395-0.471,0.492-0.561C94.527,258.877,94.285,258.822,94.056,258.762z"/>
	</g>
	<g>
		<path fill="#FC0820" d="M94.056,267.266l0.136-0.42c0.314,0.109,0.544,0.206,0.686,0.287c-0.037-0.358-0.058-0.604-0.059-0.739
			h0.43c-0.006,0.196-0.028,0.44-0.068,0.736c0.204-0.103,0.438-0.198,0.7-0.284l0.136,0.42c-0.251,0.084-0.497,0.139-0.738,0.166
			c0.121,0.105,0.291,0.292,0.511,0.562l-0.356,0.252c-0.114-0.156-0.25-0.369-0.406-0.638c-0.146,0.279-0.275,0.491-0.386,0.638
			l-0.351-0.252c0.23-0.283,0.395-0.47,0.492-0.562C94.527,267.383,94.285,267.328,94.056,267.266z"/>
	</g>
	<g>
		<path fill="#FC0820" d="M94.056,301.288l0.136-0.421c0.314,0.11,0.544,0.207,0.686,0.289c-0.037-0.359-0.058-0.605-0.059-0.74
			h0.43c-0.006,0.196-0.028,0.441-0.068,0.736c0.204-0.104,0.438-0.197,0.7-0.285l0.136,0.421c-0.251,0.084-0.497,0.139-0.738,0.167
			c0.121,0.105,0.291,0.291,0.511,0.561l-0.356,0.252c-0.114-0.156-0.25-0.368-0.406-0.638c-0.146,0.278-0.275,0.492-0.386,0.638
			l-0.351-0.252c0.23-0.282,0.395-0.471,0.492-0.561C94.527,301.405,94.285,301.35,94.056,301.288z"/>
	</g>
	<g>
		<path fill="#FC0820" d="M94.056,370.998l0.136-0.42c0.314,0.11,0.544,0.207,0.686,0.287c-0.037-0.357-0.058-0.604-0.059-0.738
			h0.43c-0.006,0.195-0.028,0.441-0.068,0.736c0.204-0.104,0.438-0.198,0.7-0.285l0.136,0.42c-0.251,0.084-0.497,0.139-0.738,0.166
			c0.121,0.106,0.291,0.293,0.511,0.563l-0.356,0.252c-0.114-0.156-0.25-0.369-0.406-0.638c-0.146,0.278-0.275,0.491-0.386,0.638
			l-0.351-0.252c0.23-0.283,0.395-0.471,0.492-0.563C94.527,371.115,94.285,371.061,94.056,370.998z"/>
	</g>
</g>
</svg>
